# xmcd
#
# Track frame offsets:
#	150
#	14531
#	27430
#	40901
#	55037
#	71456
#	83402
#	101055
#	116142
#	132708
#	146111
#	159565
#	176969
#	198342
#	213089
#	227187
#	241439
#	252260
#	270172
#	288711
#	306711
#
# Disc length: 4278 seconds
#
# Revision: 1
# Processed by: cddbd v1.4PL0 Copyright (c) Steve Scherf et al.
# Submitted via: audiograbber 1.80
#
DISCID=3e10b415
DTITLE=Various Artist - Hott Trakks 81
DYEAR=1900
DGENRE=
TTITLE0=Chris Knight - Oil Patch Town
TTITLE1=McBride  and The Ride - Squeeze Box
TTITLE2=Sonya Isaacs - Baby Don't You Let Go
TTITLE3=Toby Keith - Who's Your Daddy
TTITLE4=David Ball - Whenever You Come Back To Me
TTITLE5=Jim Lauderdale - Midnight Will Become Day
TTITLE6=Radney Foster - Everyday Angel
TTITLE7=MArk Wills - Nineteen Something
TTITLE8=Mark Chestnutt - I Want My Baby Back
TTITLE9=Trick Pony - On A Mission
TTITLE10=George Strait - She'll Leave You With A Smile
TTITLE11=Neal McCoy - The Luckiest Man In The World
TTITLE12=Kenny Chesney - A Lot Of Different Things
TTITLE13=Trace Adkins - Chrome
TTITLE14=Brad Martin - Just Like Before
TTITLE15=Ennis Sisters - Without You
TTITLE16=Elizabeth Cook - Stupid Things
TTITLE17=Rodney Redman - These Days
TTITLE18=Tommy Shane Stiener - What We're Gonna Do About It
TTITLE19=Tractors - Ready To Cry
TTITLE20=Daryle Singletary - I'd Love To Lay You Down
EXTD=
EXTT0=
EXTT1=
EXTT2=
EXTT3=
EXTT4=
EXTT5=
EXTT6=
EXTT7=
EXTT8=
EXTT9=
EXTT10=
EXTT11=
EXTT12=
EXTT13=
EXTT14=
EXTT15=
EXTT16=
EXTT17=
EXTT18=
EXTT19=
EXTT20=
PLAYORDER=
